<?xml version="1.0" encoding="UTF-8"?>
<svg id="Layer_2" data-name="Layer 2" xmlns="http://www.w3.org/2000/svg" viewBox="0 0 183 183">
  <defs>
    <style>
      .cls-1 {
        fill: none;
      }

      .cls-2 {
        fill: #2e3a8b;
      }
    </style>
  </defs>
  <g id="Layer_1-2" data-name="Layer 1">
    <g>
      <g>
        <path class="cls-2" d="m34.27,133.48c-2.4-2.89-4.8-5.46-6.85-8.28-7.56-10.36-11.41-22-11.47-34.85-.04-9.41-.03-18.82,0-28.23.04-17.12,12.89-31.63,29.86-33.7,1.86-.23,3.75-.15,5.62-.33.63-.06,1.38-.34,1.8-.78,2.61-2.7,5.71-4.11,9.5-4.08,6.21.05,12.41,0,18.62.01,8.41,0,15.04,5.01,17.09,12.89,1.99,7.63-1.41,15.27-8.63,19.34-.17.1-.35.2-.64.36.18.42.34.82.52,1.21,2.82,5.85,4.39,12,4.38,18.51,0,4.7,1.56,9.08,2.54,13.58.12.53.24,1.06.38,1.65-1.96.66-3.78,1.27-5.59,1.89-2.04.69-2.35,1.18-2.54,3.26-.33,3.59-.62,7.19-1.16,10.75-.26,1.67-.97,3.31-1.69,4.85-.39.83-.3,1.34.16,2.04,5.04,7.63,12.06,12.44,20.79,15.01,5.44,1.6,10.99,3.09,16.11,5.44,10.75,4.95,17.77,13.44,21.4,24.71.12.38.26.76.43,1.23h22.35v4.81H15.62c.59-5.7,1.39-11.28,4.12-16.4,2.61-4.9,6.19-8.9,10.79-12.01,1.33-.9,2.54-1.96,3.74-2.9Zm15.32-48.57c-2.26-2.29-4.22-4.32-6.22-6.3-1.71-1.7-3.53-2.05-5.39-1.13-1.84.91-2.78,2.85-2.44,5.13.73,4.98,3.43,8.35,8.23,9.98,2.62.89,5.25,1.77,8.02,2.71-1.9,2.39-3.71,4.59-5.42,6.85-3.84,5.08-5.46,10.78-4.9,17.15.26,2.93.41,5.89.24,8.81-.08,1.32.13,1.87,1.28,2.39,3.69,1.67,7,3.91,9.88,6.78,4.12,4.1,9.03,6.69,14.76,7.67,3.35.57,6.7.62,10.24-.34-.91-.77-1.57-1.49-2.37-1.99-3.96-2.47-7.93-4.93-11.95-7.29-.93-.54-1.24-1.1-1.23-2.13.06-4.27,0-8.55.05-12.82.01-.92-.3-1.33-1.13-1.64-2.37-.89-4.7-1.87-7.15-2.85.63-1.56,1.22-3.03,1.83-4.57,3.19,1.27,6.15,2.45,9.11,3.63,2.51,1,5.07,1.32,7.76.83,4.81-.87,9.25-5.09,9.81-9.57-5.47.57-9.88-1.05-12.7-6.18,1.54-.76,2.94-1.45,4.4-2.18,2.11,3.73,5.48,3.75,9.06,3.47.22-2.17.46-4.28.65-6.39.29-3.33,2-5.55,5.14-6.68.65-.23,1.28-.49,2.02-.78-1.44-4.56-1.95-9.11-2.11-13.76-.18-5.39-1.71-10.5-4.24-15.27-.24-.45-.83-1-1.26-1-6.87-.04-13.73-.11-20.6.05-5.82.13-10.72,4.46-11.57,10.07-.48,3.16-.67,6.37-.99,9.55-.25,2.46-.5,4.92-.8,7.82Zm.66-51.97c-1.66.15-3.18.18-4.67.43-14.51,2.45-24.72,14.5-24.77,29.24-.03,9.05-.05,18.11,0,27.16.07,11.88,3.46,22.71,10.44,32.36,1.58,2.18,3.4,4.19,5.11,6.28.17-.07.35-.15.52-.22,0-1.66.21-3.35-.03-4.97-1.39-9.2.29-17.59,6.22-24.94.11-.14.19-.31.33-.55-.77-.29-1.43-.53-2.09-.78-6.66-2.54-10.84-8.72-10.73-15.84.09-5.78,5.75-10.2,11.37-8.8,1.29.32,2.51.94,3.81,1.44.14-1.51.31-2.97.41-4.44.67-10.04,7.84-16.77,17.89-16.77,5.95,0,11.9.07,17.85-.03,6.74-.11,12.03-5.41,12.15-12.01.12-6.55-5.08-12.16-11.78-12.35-6.71-.18-13.43-.12-20.14-.02-3.84.06-6.81,3.04-7.13,6.83-.3,3.6,2.29,6.9,6.06,7.62,1.17.22,2.39.2,3.68.29,0,.84,0,1.59,0,2.35s0,1.58,0,2.33c-9.14,1.09-15.72-5.81-14.51-14.63Zm47.22,112.58c3.23,1.39,6.25,2.71,9.29,3.98,4.69,1.95,8.25,5.11,10.57,9.65.19.37.7.81,1.06.82,2.99.07,5.98.04,9.15.04-.25-.73-.4-1.32-.64-1.86-2.63-6.1-7.1-10.19-13.43-12.19-4.74-1.49-9.49-2.98-14.28-4.28-10.33-2.8-18.94-8.16-24.96-17.09-1.74-2.58-3.41-4.29-6.63-3.83-.09.01-.18.05-.4.11,0,2.04.25,4.16-.05,6.19-.52,3.54.92,5.34,4.07,6.94,10.55,5.37,17.78,13.83,21.8,24.98.35.96.89,1.04,1.7,1.04,5.34-.02,10.68,0,16.02,0,.38,0,.75,0,1.38,0-3.99-6.23-11.04-6.87-16.55-10.1.63-1.47,1.23-2.85,1.9-4.39Zm-63.15-5.35c.31.17.75.41,1.19.66,7.01,4.07,11.67,9.99,13.85,17.79.31,1.12.73,1.42,1.83,1.41,11.84-.04,23.69-.02,35.53-.03.42,0,.85-.06,1.4-.1-1.35-3.71-3.22-6.93-5.42-10-.63-.88-1.2-1.08-2.26-.79-4.62,1.31-9.3,1.47-14.02.61-6.54-1.19-12.16-4.15-16.88-8.81-2.89-2.85-6.23-4.99-9.75-6.48-1.88,1.97-3.66,3.82-5.47,5.72Zm105.28,19.78c-.17-.57-.28-1.05-.45-1.51-3.38-8.88-9.15-15.79-17.8-19.73-5.22-2.38-10.86-3.88-16.38-5.55-8.21-2.49-15.12-6.85-20.53-13.53-.79-.98-1.53-2-2.24-2.93-1.8,1.1-3.51,2.15-5.28,3.23,4.94,7.74,11.65,13.15,20.35,15.95,5.74,1.84,11.55,3.45,17.31,5.24,7.99,2.48,13.65,7.58,16.9,15.31.48,1.15.83,2.36,1.24,3.52h6.89Zm-94.97.01c-2.37-7.72-7.09-13.07-14.39-16.08-.38-.16-1.16.12-1.49.46-2.57,2.59-4.57,5.58-5.8,9.02-.75,2.1-1.26,4.3-1.92,6.6h23.61Z"/>
        <path class="cls-2" d="m103.88,106.26v-4.87h1.63c12.46,0,24.92,0,37.38,0,13.98.01,24.99,11.5,24.42,25.46-.28,6.84-6.27,13.01-13.2,13.58-7.5.62-14.31-4.35-15.77-11.51-1.29-6.32,1.76-11.44,7.56-12.72,5.82-1.28,11.74,3.51,11.59,9.5h-4.71c-.1-.34-.21-.72-.32-1.1-.73-2.48-3.11-4.06-5.44-3.6-2.62.52-4.31,2.75-4.09,5.42.42,5.24,4.88,9.32,10,9.15,5.21-.18,9.37-4.4,9.51-9.66.26-9.38-7.38-18.26-16.68-19.37-1.46-.17-2.94-.27-4.41-.27-11.9-.02-23.8-.01-35.7-.01h-1.78Z"/>
        <path class="cls-2" d="m105.71,66.37c-1.3-1.11-2.48-2.13-3.73-3.21,3.74-4.37,7.43-8.62,11.03-12.95.52-.62.81-1.6.85-2.42.15-3.9-.33-7.89.36-11.68,1.29-7.07,5.55-12.22,12.08-15.31,6.01-2.84,12.09-5.52,18.14-8.27.22-.1.46-.17.67-.25.1.11.22.17.22.23,0,6.2.41,12.44-.1,18.6-.84,10.13-8.28,17.69-18.43,19.56-2.74.5-5.49.99-8.22,1.57-.58.12-1.18.56-1.58,1.02-3.74,4.3-7.43,8.63-11.27,13.1Zm34.96-46.72c-4.02,1.82-7.6,3.48-11.2,5.08-10.19,4.51-12.04,13.27-10.46,22.36,2.34-.43,4.69-.81,7.01-1.29,7.49-1.54,12.49-5.95,13.98-13.47.79-3.98.47-8.18.67-12.67Z"/>
        <path class="cls-2" d="m136.31,67.85c1.97-1.96,3.94-3.86,5.82-5.85.43-.45.71-1.2.76-1.83.16-1.82-.07-3.69.27-5.46,1.15-6.11,4.82-10.05,10.81-11.72,4.2-1.16,8.44-2.15,12.67-3.21.19-.05.39,0,.61,0,0,3.79.37,7.58-.08,11.28-.86,7.1-6.4,12.02-13.67,12.74-1.97.19-3.94.39-5.89.72-.69.12-1.43.53-1.94,1.02-1.98,1.89-3.88,3.86-5.83,5.83-1.22-1.22-2.32-2.32-3.52-3.52Zm26.07-21.9c-2.27.58-4.38,1.12-6.48,1.64-5.8,1.45-8.78,5.87-7.96,11.91,2.1-.28,4.21-.52,6.3-.83,2.76-.42,4.9-1.85,6.49-4.13,1.77-2.54,1.87-5.4,1.65-8.58Z"/>
        <path class="cls-2" d="m108.79,96.48v-4.86h1.68c9.55,0,19.1,0,28.66,0,.46,0,.92.03,1.37-.02,1.41-.15,2.44-1.23,2.4-2.49-.04-1.21-1.03-2.24-2.37-2.36-.75-.07-1.52-.01-2.38-.01v-4.71c5.59-1.04,9.89,2.4,9.64,7.69-.16,3.4-3.13,6.68-6.53,6.71-10.77.1-21.53.04-32.46.04Z"/>
        <path class="cls-2" d="m167.33,94.04c-2.78,0-5.32.06-7.86-.01-3.41-.1-6.55-3.1-6.74-6.5-.12-2.13-.03-4.27-.04-6.4,0-.5,0-1,0-1.6,3,0,5.96-.3,8.83.08,3.5.46,5.78,3.59,5.81,7.16.02,2.38,0,4.75,0,7.28Zm-9.69-9.63c-.54,4.16,1.07,5.27,4.7,4.59.46-4.02-.6-5.07-4.7-4.59Z"/>
        <path class="cls-2" d="m99.05,111.23h4.67v4.7h-4.67v-4.7Z"/>
        <path class="cls-2" d="m108.81,111.22h4.69v4.72h-4.69v-4.72Z"/>
        <path class="cls-2" d="m123.3,115.97h-4.7v-4.73h4.7v4.73Z"/>
        <path class="cls-2" d="m69.72,77.03h4.71c.4,1.23,1.05,2.35,2.55,2.34,1.48-.01,2.21-1.04,2.51-2.35h4.64c.44,3.44-2.77,7.01-6.46,7.25-4.38.29-7.96-2.89-7.96-7.25Z"/>
      </g>
      <rect class="cls-1" width="183" height="183"/>
    </g>
  </g>
</svg>