<?xml version="1.0" encoding="UTF-8"?>
<svg id="Layer_2" data-name="Layer 2" xmlns="http://www.w3.org/2000/svg" viewBox="0 0 183 183">
  <defs>
    <style>
      .cls-1 {
        fill: none;
      }

      .cls-2 {
        fill: #2e3a8b;
        stroke: #2e3a8b;
        stroke-miterlimit: 10;
      }
    </style>
  </defs>
  <g id="Layer_1-2" data-name="Layer 1">
    <g>
      <g>
        <path class="cls-2" d="m91.52,20.7c22.14,0,44.29,0,66.43,0,7.16,0,11.62,4.47,11.62,11.65,0,22.92,0,45.85,0,68.77,0,7.14-4.51,11.65-11.66,11.65-44.29,0-88.58,0-132.87,0-7.12,0-11.62-4.53-11.62-11.68,0-22.92,0-45.85,0-68.77,0-7.16,4.48-11.62,11.66-11.62,22.14,0,44.29,0,66.43,0Zm.05,3.33c-21.93,0-43.86.12-65.79-.08-6.07-.05-9.11,3.71-9.07,8.99.18,22.92.07,45.83.08,68.75,0,4.61,3.09,7.71,7.69,7.72,44.69,0,89.39,0,134.08,0,4.59,0,7.67-3.12,7.67-7.74.01-23.28,0-46.56,0-69.84,0-.72-.03-1.46-.21-2.15-.93-3.69-3.71-5.64-8.02-5.65-22.14,0-44.28,0-66.42,0Z"/>
        <path class="cls-2" d="m144.93,141.5c1.88,0,3.59-.1,5.27.05.78.07,1.82.44,2.17,1.02.29.48-.07,1.59-.47,2.21-4.16,6.38-8.38,12.71-12.59,19.05-1.21,1.82-2.36,1.82-3.56.01-4.21-6.34-8.42-12.68-12.57-19.07-.4-.61-.76-1.72-.48-2.2.35-.58,1.39-.96,2.16-1.03,1.69-.15,3.39-.05,5.29-.05v-1.8c0-6.58,0-13.17,0-19.75,0-2.26.48-2.75,2.71-2.75,3.16,0,6.32,0,9.49,0,2.04,0,2.57.53,2.58,2.57.01,6.53,0,13.06,0,19.59,0,.62,0,1.24,0,2.14Zm-11.43-20.88c0,.69,0,1.25,0,1.81,0,6.64,0,13.27,0,19.91,0,2.04-.44,2.48-2.43,2.49-1.22,0-2.43,0-3.92,0,3.53,5.34,6.89,10.41,10.39,15.7,3.5-5.28,6.88-10.37,10.41-15.7-1.38,0-2.46,0-3.53,0-2.5,0-2.8-.29-2.8-2.73,0-6.58,0-13.17,0-19.75v-1.73h-8.11Z"/>
        <path class="cls-2" d="m52.84,141.5c1.87,0,3.58-.1,5.26.05.78.07,1.82.43,2.18,1.01.29.47-.05,1.59-.45,2.2-4.16,6.38-8.38,12.71-12.59,19.05-1.22,1.83-2.36,1.85-3.56.05-4.24-6.39-8.48-12.77-12.65-19.19-.39-.6-.65-1.7-.35-2.22.31-.54,1.35-.85,2.09-.91,1.69-.13,3.4-.04,5.3-.04,0-.69,0-1.24,0-1.79,0-6.58,0-13.17,0-19.75,0-2.27.48-2.76,2.7-2.76,3.16,0,6.32,0,9.49,0,2.04,0,2.58.53,2.58,2.57,0,6.53,0,13.06,0,19.59,0,.62,0,1.24,0,2.14Zm-11.45-20.88c0,.7,0,1.26,0,1.82,0,6.69,0,13.38,0,20.07,0,1.84-.47,2.31-2.27,2.33-1.27.01-2.53,0-4.07,0,3.56,5.37,6.93,10.46,10.4,15.7,3.53-5.34,6.89-10.41,10.39-15.7-1.38,0-2.46,0-3.53,0-2.47,0-2.81-.32-2.81-2.74,0-6.59,0-13.17,0-19.76,0-.55,0-1.11,0-1.73h-8.11Z"/>
        <path class="cls-2" d="m84.11,146.41c0-7.23,0-14.23,0-21.22,0-2.83.25-3.07,3.12-3.07,3.06,0,6.12,0,9.18,0,1.98,0,2.48.48,2.48,2.46.01,6.84,0,13.69,0,20.53,0,.36.03.72.06,1.3,1.76,0,3.51-.08,5.24.04.74.05,1.79.33,2.09.85.3.52.04,1.62-.35,2.22-4.18,6.42-8.43,12.8-12.68,19.19-1.23,1.84-2.32,1.84-3.55,0-4.24-6.39-8.48-12.77-12.65-19.2-.39-.6-.6-1.64-.34-2.23.22-.48,1.25-.78,1.95-.82,1.74-.11,3.5-.04,5.45-.04Zm3.33-20.91c0,.68,0,1.24,0,1.8,0,6.68,0,13.36,0,20.04,0,1.86-.52,2.37-2.4,2.4-1.2.02-2.41,0-3.91,0,3.56,5.37,6.9,10.42,10.36,15.65,3.52-5.32,6.86-10.36,10.36-15.65-1.46,0-2.54,0-3.63,0-2.2-.01-2.66-.46-2.66-2.6,0-6.63,0-13.26,0-19.89v-1.75h-8.11Z"/>
        <path class="cls-2" d="m91.52,101.76c-18.04,0-36.09,0-54.13,0-2.73,0-2.77-.04-3.17-2.78-.56-3.83-3.69-6.75-7.57-7.06-1.74-.14-2.21-.57-2.21-2.29-.01-15.3,0-30.59,0-45.89,0-1.42.56-2.14,2.11-2.25,4.38-.32,7.36-3.39,7.72-7.87.11-1.36.8-1.94,2.09-1.98.41-.01.83,0,1.24,0,35.93,0,71.87,0,107.8,0q2.97,0,3.41,2.87c.6,3.82,3.66,6.64,7.63,7.02,1.73.16,2.15.57,2.15,2.33.01,15.24.01,30.49,0,45.73,0,1.78-.44,2.17-2.33,2.34-3.97.34-7.17,3.54-7.49,7.47-.17,2.04-.53,2.35-2.78,2.35-18.15,0-36.3,0-54.44,0Zm63.69-13.09v-43.85c-5.92-1.82-8.17-4.07-9.76-9.77H37.51c-1.17,5.33-4.42,8.54-9.73,9.71v43.84c5.92,1.8,8.16,4.05,9.77,9.8h107.93c1.17-5.33,4.39-8.57,9.73-9.73Z"/>
        <path class="cls-2" d="m112.49,67.11c-.11,6.76-2.23,13.23-7.36,18.46-7.98,8.13-19.57,8.02-27.48-.18-9.34-9.68-9.52-27.03-.39-36.91,8.5-9.21,21.54-8.76,29.37,1.04,4,5.01,5.79,10.79,5.87,17.61Zm-20.23-21.93c-5.22.02-8.91,1.79-11.98,4.9-8,8.12-8.68,22.35-1.53,31.53,6.89,8.86,18.61,8.85,25.5-.02,6.31-8.12,6.61-20.56.64-28.91-3.28-4.59-7.59-7.4-12.63-7.51Z"/>
        <path class="cls-2" d="m65.06,65.8c-.02,5.34-4.33,9.63-9.69,9.64-5.41,0-9.8-4.4-9.73-9.77.06-5.35,4.39-9.65,9.72-9.67,5.39-.02,9.72,4.36,9.7,9.8Zm-9.73,6.3c3.61.01,6.43-2.77,6.43-6.35,0-3.55-2.86-6.45-6.38-6.47-3.47-.01-6.45,2.93-6.48,6.42-.03,3.49,2.88,6.38,6.43,6.4Z"/>
        <path class="cls-2" d="m117.94,65.66c.02-5.34,4.35-9.67,9.69-9.67,5.39,0,9.78,4.42,9.74,9.8-.04,5.41-4.41,9.68-9.87,9.64-5.31-.04-9.58-4.4-9.55-9.77Zm9.7,6.43c3.58,0,6.47-2.85,6.47-6.36,0-3.47-2.98-6.44-6.45-6.45-3.52,0-6.4,2.88-6.42,6.43-.02,3.57,2.8,6.38,6.4,6.38Z"/>
        <path class="cls-2" d="m93.1,79.91c-.11,1.1.13,2.66-1.69,2.66-1.9,0-1.58-1.67-1.75-2.62-1.54-.79-2.98-1.38-4.24-2.23-1.71-1.16-2.62-2.91-2.79-4.98-.08-.97.29-1.78,1.36-1.93,1.11-.15,1.72.4,1.92,1.53.4,2.28,1.85,3.63,4.28,4.04,2.55.43,5.34-.59,6.36-2.33.85-1.45.6-3.32-1-4.21-1.44-.79-3.19-.99-4.78-1.54-1.83-.63-3.86-1.03-5.37-2.12-3.69-2.68-3.54-7.74.1-10.48.85-.64,1.86-1.15,2.87-1.48,1.01-.33,1.72-.55,1.7-1.88,0-.48.97-1.4,1.44-1.36.61.05,1.65.84,1.66,1.32.03,1.35.72,1.65,1.79,2.01,2.88.98,4.89,2.86,5.38,6.02.18,1.16-.08,2.16-1.4,2.32-1.21.15-1.62-.64-1.89-1.77-.21-.89-.73-1.86-1.41-2.47-2.08-1.87-5.86-1.86-8.09-.16-2.08,1.59-2.14,4.24.12,5.54,1.37.79,3.12.89,4.68,1.37,1.61.5,3.37.8,4.75,1.69,4.37,2.83,4.25,8.53-.16,11.32-1.11.71-2.42,1.1-3.84,1.73Z"/>
      </g>
      <rect class="cls-1" width="183" height="183"/>
    </g>
  </g>
</svg>