<?xml version="1.0" encoding="UTF-8"?>
<svg id="Layer_2" data-name="Layer 2" xmlns="http://www.w3.org/2000/svg" viewBox="0 0 64.65 52.16">
  <defs>
    <style>
      .cls-1 {
        fill: #fff;
      }

      .cls-2 {
        fill: #5ca7db;
      }
    </style>
  </defs>
  <g id="Layer_1-2" data-name="Layer 1">
    <g>
      <polygon class="cls-2" points="60.77 .59 60.77 52.09 64.65 49.47 64.65 2.84 60.77 .59"/>
      <polygon class="cls-2" points="5.46 7.29 5.46 15.97 8.46 15.97 8.46 9.9 55.58 3.44 55.58 48.78 8.46 43.14 8.46 37.09 5.46 37.09 5.46 45.8 58.58 52.16 58.58 0 5.46 7.29"/>
      <path class="cls-1" d="m35.21,34.14c-5.29,0-9.1-1.97-12.81-4.27-3.9-2.42-7.58-4.11-12.72-3.43-3.99.53-8.12,2.89-8.16,2.92l-.5-1.87c.18-.1,4.35-2.49,8.53-3.04,5.49-.73,9.5,1.77,13.38,4.18,4.11,2.55,8.36,5.19,14.61,4.37,9.38-1.24,12.59-4.66,12.62-4.7l.74.67c-.14.15-3.5,3.73-13.23,5.01-.86.11-1.67.17-2.46.17Z"/>
      <path class="cls-1" d="m35.96,28.87c-6.13,0-10.33-2.49-14.4-5.3-3.94-2.71-7.66-4.69-12.87-4.41-4.02.2-8.21,2.21-8.25,2.23l-.44-1.9c.18-.09,4.41-2.12,8.63-2.33,5.57-.28,9.58,2.5,13.49,5.19,4.15,2.86,8.46,5.82,14.78,5.5,9.41-.47,12.71-3.6,12.75-3.63l.7.71c-.14.14-3.55,3.43-13.4,3.92-.34.02-.67.02-1,.02Z"/>
      <path class="cls-1" d="m35.81,38.7c-5.28,0-9.55-1.69-13.4-3.21-3.92-1.55-7.62-3.01-11.73-2.47-3.99.52-8.12,2.89-8.17,2.92l-.5-1.87c.18-.1,4.35-2.49,8.53-3.04,4.39-.58,8.19,1.13,12.23,2.73,5.74,2.27,8.6,4.73,16.19,3.73,9.34-1.23,11.73-4.5,11.76-4.54l.82.57c-.1.15-2.67,3.67-12.44,4.95-1.14.15-2.24.22-3.29.22Z"/>
    </g>
  </g>
</svg>